#define five_width 16
#define five_height 32
static unsigned char five_bits[] = {
   0x00, 0x00, 0x00, 0x00, 0x00, 0x00, 0x00, 0x00, 0xfc, 0x3f, 0xfc, 0x3f,
   0x0c, 0x00, 0x0c, 0x00, 0x0c, 0x00, 0x0c, 0x00, 0x0c, 0x00, 0x0c, 0x00,
   0x0c, 0x00, 0x0c, 0x00, 0xfc, 0x0f, 0xfc, 0x0f, 0x00, 0x30, 0x00, 0x30,
   0x00, 0x30, 0x00, 0x30, 0x00, 0x30, 0x00, 0x30, 0x00, 0x30, 0x00, 0x30,
   0x0c, 0x30, 0x0c, 0x30, 0xf0, 0x0f, 0xf0, 0x0f, 0x00, 0x00, 0x00, 0x00,
   0x00, 0x00, 0x00, 0x00 };
