#define two_width 16
#define two_height 32
static unsigned char two_bits[] = {
   0x00, 0x00, 0x00, 0x00, 0x00, 0x00, 0x00, 0x00, 0xf0, 0x0f, 0xf0, 0x0f,
   0x0c, 0x30, 0x0c, 0x30, 0x00, 0x30, 0x00, 0x30, 0x00, 0x30, 0x00, 0x30,
   0x00, 0x30, 0x00, 0x30, 0x00, 0x0c, 0x00, 0x0c, 0x00, 0x03, 0x00, 0x03,
   0xc0, 0x00, 0xc0, 0x00, 0x30, 0x00, 0x30, 0x00, 0x0c, 0x00, 0x0c, 0x00,
   0x0c, 0x00, 0x0c, 0x00, 0xfc, 0x3f, 0xfc, 0x3f, 0x00, 0x00, 0x00, 0x00,
   0x00, 0x00, 0x00, 0x00 };
